<?xml version="1.0" encoding="UTF-8" standalone="no"?>
<!-- Created with Inkscape (http://www.inkscape.org/) -->

<svg
   width="210mm"
   height="297mm"
   viewBox="0 0 210 297"
   version="1.1"
   id="svg5"
   xml:space="preserve"
   inkscape:version="1.2.2 (b0a8486541, 2022-12-01)"
   sodipodi:docname="logo_original.svg"
   xmlns:inkscape="http://www.inkscape.org/namespaces/inkscape"
   xmlns:sodipodi="http://sodipodi.sourceforge.net/DTD/sodipodi-0.dtd"
   xmlns="http://www.w3.org/2000/svg"
   xmlns:svg="http://www.w3.org/2000/svg"><sodipodi:namedview
     id="namedview7"
     pagecolor="#ffffff"
     bordercolor="#000000"
     borderopacity="0.25"
     inkscape:showpageshadow="2"
     inkscape:pageopacity="0.0"
     inkscape:pagecheckerboard="0"
     inkscape:deskcolor="#d1d1d1"
     inkscape:document-units="mm"
     showgrid="false"
     inkscape:zoom="1.1893044"
     inkscape:cx="258.97491"
     inkscape:cy="539.81134"
     inkscape:window-width="1920"
     inkscape:window-height="1163"
     inkscape:window-x="0"
     inkscape:window-y="0"
     inkscape:window-maximized="1"
     inkscape:current-layer="g7762" /><defs
     id="defs2" /><g
     inkscape:label="Layer 1"
     inkscape:groupmode="layer"
     id="layer1"><g
       id="g5441"
       transform="matrix(0.58120075,0,0,0.58120075,-17.733303,15.728968)"><rect
         style="fill:#333333;fill-opacity:1;stroke-width:0.349999;stroke-linecap:round;paint-order:fill markers stroke"
         id="rect375"
         width="60.510014"
         height="60.510014"
         x="-61.640675"
         y="75.188942" /><rect
         style="fill:#88304e;fill-opacity:1;stroke-width:0.349999;stroke-linecap:round;paint-order:fill markers stroke"
         id="rect377"
         width="60.510014"
         height="60.510014"
         x="-61.640675"
         y="203.12715" /><rect
         style="fill:#522546;fill-opacity:1;stroke-width:0.349999;stroke-linecap:round;paint-order:fill markers stroke"
         id="rect379"
         width="60.510014"
         height="60.510014"
         x="-61.640675"
         y="139.15805" /><rect
         style="fill:#f7374f;fill-opacity:1;stroke-width:0.349999;stroke-linecap:round;paint-order:fill markers stroke"
         id="rect381"
         width="60.510014"
         height="60.510014"
         x="-61.640675"
         y="267.09625" /></g><g
       id="g5905"
       transform="matrix(0.48599787,0,0,0.48599787,-11.983479,-76.513675)"><path
         id="rect5764"
         style="fill:#f7374f;fill-opacity:1;stroke-width:0.349999;stroke-linecap:round;paint-order:fill markers stroke"
         d="m 211.02652,69.409165 0.15712,0.157126 v 43.786789 13.78609 l 13.78573,-3.6e-4 43.47291,3.6e-4 v -0.31425 l 0.15712,0.15713 13.78573,-13.78573 -43.4729,-3.7e-4 46.48167,-46.481665 -13.78573,-13.785731 -46.4813,46.481303 V 55.308819 L 211.18364,69.25204 Z m 71.35861,43.787155 0.31462,-0.31462 -0.31462,-0.31461 z"
         transform="rotate(45)" /><rect
         style="fill:#f7374f;fill-opacity:1;stroke-width:0.350478;stroke-linecap:round;paint-order:fill markers stroke"
         id="rect5830"
         width="19.495968"
         height="81.420349"
         x="-146.89925"
         y="-279.71832"
         transform="scale(-1)" /><path
         id="path5836"
         style="fill:#f7374f;fill-opacity:1;stroke-width:0.349999;stroke-linecap:round;paint-order:fill markers stroke"
         d="m 174.16394,198.29797 1e-5,0.22221 30.96193,30.96194 9.74824,9.74823 -9.74824,9.74773 -30.73973,30.74025 -0.22221,-0.22221 1e-5,0.22221 h -19.49597 l 30.73972,-30.74025 -65.735,1e-5 v -19.49597 h 65.73448 l -31.18414,-31.18414 19.7187,-1e-5 z m -19.49596,81.42036 h -0.44494 l 1e-5,-0.44494 z" /></g><g
       id="g7762"
       transform="translate(-2.760458,-16.903269)"><path
         id="path7289"
         style="fill:#f7374f;fill-opacity:0.02;stroke:none;stroke-width:4.60574;stroke-linecap:square;stroke-linejoin:miter;stroke-dasharray:none;stroke-opacity:1;paint-order:fill markers stroke"
         d="m 62.560006,144.05839 v 8.80566 h 4.506185 v -6.85487 z" /><path
         id="path7187"
         style="color:#000000;fill:#88304e;fill-opacity:1;stroke-linecap:square;-inkscape-stroke:none;paint-order:fill markers stroke"
         d="m 37.493319,130.81062 c -0.10839,0.0277 -1.465642,0.39406 -1.575098,0.42375 -7.692409,2.77807 -12.52275,10.28877 -12.52275,10.28877 0,0 7.702857,-6.54426 13.200228,-7.7866 l 0.89762,-0.24391 z"
         sodipodi:nodetypes="cccccc" /><text
         xml:space="preserve"
         style="font-size:12.0999px;line-height:0;font-family:sans-serif;-inkscape-font-specification:sans-serif;fill:#88304e;fill-opacity:1;stroke-width:0.666923;stroke-linecap:round;paint-order:fill markers stroke"
         x="12.148158"
         y="164.27295"
         id="text5969"><tspan
           sodipodi:role="line"
           id="tspan5967"
           style="font-style:normal;font-variant:normal;font-weight:bold;font-stretch:normal;font-family:sans-serif;-inkscape-font-specification:'sans-serif Bold';fill:#88304e;fill-opacity:1;stroke-width:0.666923"
           x="12.148158"
           y="164.27295">transitreg</tspan></text><rect
         style="fill:#f7374f;fill-opacity:1;stroke:none;stroke-width:4.66946;stroke-linecap:square;stroke-linejoin:miter;stroke-dasharray:none;stroke-opacity:1;paint-order:fill markers stroke"
         id="rect6687"
         width="4.5061584"
         height="10.177086"
         x="12.426455"
         y="142.68687" /><rect
         style="fill:#f7374f;fill-opacity:1;stroke:none;stroke-width:4.45617;stroke-linecap:square;stroke-linejoin:miter;stroke-dasharray:none;stroke-opacity:1;paint-order:fill markers stroke"
         id="rect6689"
         width="4.5061584"
         height="9.2685461"
         x="17.439844"
         y="143.59541" /><rect
         style="fill:#f7374f;fill-opacity:1;stroke:none;stroke-width:5.31165;stroke-linecap:square;stroke-linejoin:miter;stroke-dasharray:none;stroke-opacity:1;paint-order:fill markers stroke"
         id="rect6691"
         width="4.5061584"
         height="13.169022"
         x="22.453238"
         y="139.69493" /><rect
         style="fill:#f7374f;fill-opacity:1;stroke:none;stroke-width:5.92453;stroke-linecap:square;stroke-linejoin:miter;stroke-dasharray:none;stroke-opacity:1;paint-order:fill markers stroke"
         id="rect6693"
         width="4.5061584"
         height="16.382994"
         x="27.466631"
         y="136.48096" /><rect
         style="fill:#f7374f;fill-opacity:1;stroke:none;stroke-width:6.35518;stroke-linecap:square;stroke-linejoin:miter;stroke-dasharray:none;stroke-opacity:1;paint-order:fill markers stroke"
         id="rect6695"
         width="4.5061584"
         height="18.851532"
         x="32.480022"
         y="134.01244" /><path
         id="rect6697"
         style="fill:#f7374f;fill-opacity:0.8;stroke:none;stroke-width:6.80863;stroke-linecap:square;stroke-linejoin:miter;stroke-dasharray:none;stroke-opacity:1;paint-order:fill markers stroke"
         d="m 41.999504,131.87722 c -1.610873,0.13772 -3.657379,0.33426 -4.506185,0.41651 v 20.57032 h 4.506185 z" /><path
         id="rect6699"
         style="fill:#f7374f;fill-opacity:0.6;stroke:none;stroke-width:6.72615;stroke-linecap:square;stroke-linejoin:miter;stroke-dasharray:none;stroke-opacity:1;paint-order:fill markers stroke"
         d="m 43.670203,131.75785 c -0.14134,-0.002 -0.5794,0.0283 -1.163237,0.076 v 21.03024 h 4.506185 V 132.3976 c -1.181895,-0.2271 -3.112336,-0.59837 -3.30109,-0.63665 -0.0079,-0.002 -0.02207,-0.003 -0.04186,-0.003 z" /><path
         id="rect6701"
         style="fill:#f7374f;fill-opacity:0.4;stroke:none;stroke-width:6.5135;stroke-linecap:square;stroke-linejoin:miter;stroke-dasharray:none;stroke-opacity:1;paint-order:fill markers stroke"
         d="m 47.520097,133.06165 v 19.8024 h 4.506185 v -16.23673 c -0.41566,-0.75255 -0.802018,-1.49087 -0.802018,-1.49087 l -2.569869,-2.0748 z" /><path
         id="rect6707"
         style="fill:#f7374f;fill-opacity:0.2;stroke:none;stroke-width:5.86486;stroke-linecap:square;stroke-linejoin:miter;stroke-dasharray:none;stroke-opacity:1;paint-order:fill markers stroke"
         d="m 52.533744,137.52132 v 15.34273 h 4.506185 v -10.21746 c -0.728651,-0.29128 -1.578198,-0.7276 -1.578198,-0.7276 0,0 -2.15156,-3.3742 -2.507857,-3.76308 -0.08897,-0.0971 -0.241549,-0.33377 -0.42013,-0.63459 z" /><path
         id="rect6709"
         style="fill:#f7374f;fill-opacity:0.05;stroke:none;stroke-width:4.60574;stroke-linecap:square;stroke-linejoin:miter;stroke-dasharray:none;stroke-opacity:1;paint-order:fill markers stroke"
         d="m 57.546875,142.96285 v 9.9012 h 4.506185 v -9.02528 c -1.074723,-0.27314 -2.847842,-0.71495 -3.702616,-0.87592 z" /><path
         id="path6025"
         style="color:#000000;fill:#88304e;fill-opacity:1;stroke-linecap:square;-inkscape-stroke:none;paint-order:fill markers stroke"
         d="m 42.287341,130.18223 c -0.245691,-0.001 -0.495137,0.003 -0.748274,0.0129 -1.350066,0.0543 -2.806111,0.27466 -4.37131,0.69919 l -1.249536,0.34003 0.677478,2.50217 1.25212,-0.34003 c 5.601992,-1.51944 8.988045,-0.19547 11.400338,1.79472 2.412292,1.99018 3.72331,4.72131 4.640543,6.30659 l 0.05064,0.0884 0.06253,0.078 c 1.251637,1.54961 2.623556,2.24195 3.976501,2.54662 1.352946,0.30467 2.664324,0.36813 4.629175,0.97461 1.491209,0.46027 3.762101,2.65103 5.427576,4.78111 0.850809,1.08814 1.567708,2.13231 2.068607,2.89749 h 3.055628 l -0.05994,-0.10231 c 0,0 -1.23869,-2.11035 -3.023071,-4.3925 -1.784381,-2.28215 -4.008703,-4.82787 -6.705017,-5.66012 -2.222678,-0.68605 -3.789672,-0.79476 -4.822445,-1.02733 -1.017412,-0.22911 -1.546281,-0.45285 -2.492354,-1.61127 -0.792195,-1.39324 -2.272423,-4.49696 -5.159892,-6.87917 -2.074084,-1.71116 -4.923919,-2.99017 -8.609294,-3.00912 z" /></g><g
       id="g6721"
       transform="matrix(0.37455059,0,0,0.37455059,-6.721547,28.554831)"><g
         id="g5913"
         transform="matrix(0.4697346,0,0,0.4697346,36.514738,36.229602)"><path
           id="path5907"
           style="fill:#f7374f;fill-opacity:1;stroke-width:0.349999;stroke-linecap:round;paint-order:fill markers stroke"
           d="m 211.02652,69.409165 0.15712,0.157126 v 43.786789 13.78609 l 13.78573,-3.6e-4 43.47291,3.6e-4 v -0.31425 l 0.15712,0.15713 13.78573,-13.78573 -43.4729,-3.7e-4 46.48167,-46.481665 -13.78573,-13.785731 -46.4813,46.481303 V 55.308819 L 211.18364,69.25204 Z m 71.35861,43.787155 0.31462,-0.31462 -0.31462,-0.31461 z"
           transform="rotate(45)" /><rect
           style="fill:#f7374f;fill-opacity:1;stroke-width:0.350478;stroke-linecap:round;paint-order:fill markers stroke"
           id="rect5909"
           width="19.495968"
           height="81.420349"
           x="-146.89925"
           y="-279.71832"
           transform="scale(-1)" /><path
           id="path5911"
           style="fill:#f7374f;fill-opacity:1;stroke-width:0.349999;stroke-linecap:round;paint-order:fill markers stroke"
           d="m 174.16394,198.29797 1e-5,0.22221 30.96193,30.96194 9.74824,9.74823 -9.74824,9.74773 -30.73973,30.74025 -0.22221,-0.22221 1e-5,0.22221 h -19.49597 l 30.73972,-30.74025 -65.735,1e-5 v -19.49597 h 65.73448 l -31.18414,-31.18414 19.7187,-1e-5 z m -19.49596,81.42036 h -0.44494 l 1e-5,-0.44494 z" /></g><text
         xml:space="preserve"
         style="font-size:23.3401px;line-height:0;font-family:sans-serif;-inkscape-font-specification:sans-serif;fill:#f7374f;fill-opacity:1;stroke-width:1.28646;stroke-linecap:round;paint-order:fill markers stroke"
         x="42.962635"
         y="186.69356"
         id="text6713"><tspan
           sodipodi:role="line"
           id="tspan6711"
           style="font-style:normal;font-variant:normal;font-weight:bold;font-stretch:normal;font-family:sans-serif;-inkscape-font-specification:'sans-serif Bold';stroke-width:1.28646"
           x="42.962635"
           y="186.69356">transitreg</tspan></text></g><g
       id="g6764"
       transform="translate(-177.3038,12.341055)"><text
         xml:space="preserve"
         style="font-size:23.3401px;line-height:0;font-family:sans-serif;-inkscape-font-specification:sans-serif;fill:#f7374f;fill-opacity:1;stroke-width:1.28646;stroke-linecap:round;paint-order:fill markers stroke"
         x="42.962635"
         y="283.28555"
         id="text6740"><tspan
           sodipodi:role="line"
           id="tspan6738"
           style="font-style:normal;font-variant:normal;font-weight:bold;font-stretch:normal;font-family:sans-serif;-inkscape-font-specification:'sans-serif Bold';stroke-width:1.28646"
           x="42.962635"
           y="283.28555">transitreg</tspan></text><rect
         style="fill:#f7374f;fill-opacity:1;stroke:none;stroke-width:9.00715;stroke-linecap:square;stroke-linejoin:miter;stroke-dasharray:none;stroke-opacity:1;paint-order:fill markers stroke"
         id="rect6742"
         width="8.6921434"
         height="19.631065"
         x="43.499458"
         y="241.64714" /><rect
         style="fill:#f7374f;fill-opacity:1;stroke:none;stroke-width:8.59571;stroke-linecap:square;stroke-linejoin:miter;stroke-dasharray:none;stroke-opacity:1;paint-order:fill markers stroke"
         id="rect6744"
         width="8.6921434"
         height="17.87854"
         x="53.170029"
         y="243.39966" /><rect
         style="fill:#f7374f;fill-opacity:1;stroke:none;stroke-width:10.2459;stroke-linecap:square;stroke-linejoin:miter;stroke-dasharray:none;stroke-opacity:1;paint-order:fill markers stroke"
         id="rect6746"
         width="8.6921434"
         height="25.402353"
         x="62.840599"
         y="235.87585" /><rect
         style="fill:#f7374f;fill-opacity:1;stroke:none;stroke-width:11.4281;stroke-linecap:square;stroke-linejoin:miter;stroke-dasharray:none;stroke-opacity:1;paint-order:fill markers stroke"
         id="rect6748"
         width="8.6921434"
         height="31.601936"
         x="72.511169"
         y="229.67627" /><rect
         style="fill:#f7374f;fill-opacity:1;stroke:none;stroke-width:12.2588;stroke-linecap:square;stroke-linejoin:miter;stroke-dasharray:none;stroke-opacity:1;paint-order:fill markers stroke"
         id="rect6750"
         width="8.6921434"
         height="36.363617"
         x="82.18174"
         y="224.9146" /><rect
         style="fill:#f7374f;fill-opacity:1;stroke:none;stroke-width:13.1335;stroke-linecap:square;stroke-linejoin:miter;stroke-dasharray:none;stroke-opacity:1;paint-order:fill markers stroke"
         id="rect6752"
         width="8.6921434"
         height="41.737942"
         x="91.85231"
         y="219.54027" /><rect
         style="fill:#f7374f;fill-opacity:0.8;stroke:none;stroke-width:12.9744;stroke-linecap:square;stroke-linejoin:miter;stroke-dasharray:none;stroke-opacity:1;paint-order:fill markers stroke"
         id="rect6754"
         width="8.6921434"
         height="40.732635"
         x="101.52288"
         y="220.54556" /><rect
         style="fill:#f7374f;fill-opacity:0.6;stroke:none;stroke-width:12.5642;stroke-linecap:square;stroke-linejoin:miter;stroke-dasharray:none;stroke-opacity:1;paint-order:fill markers stroke"
         id="rect6756"
         width="8.6921434"
         height="38.197868"
         x="111.19345"
         y="223.08034" /><rect
         style="fill:#f7374f;fill-opacity:0.4;stroke:none;stroke-width:11.313;stroke-linecap:square;stroke-linejoin:miter;stroke-dasharray:none;stroke-opacity:1;paint-order:fill markers stroke"
         id="rect6758"
         width="8.6921434"
         height="30.968891"
         x="120.86402"
         y="230.30931" /><rect
         style="fill:#f7374f;fill-opacity:0.2;stroke:none;stroke-width:8.88423;stroke-linecap:square;stroke-linejoin:miter;stroke-dasharray:none;stroke-opacity:1;paint-order:fill markers stroke"
         id="rect6760"
         width="8.6921434"
         height="19.098919"
         x="130.53459"
         y="242.17928" /><path
         style="fill:none;fill-opacity:1;stroke:#000000;stroke-width:5;stroke-linecap:square;stroke-linejoin:miter;stroke-dasharray:none;stroke-opacity:1;paint-order:fill markers stroke"
         d="m 91.879686,221.31318 c 22.882744,-6.20654 30.492694,11.13735 33.762974,16.78945 4.29226,5.31406 7.31123,3.48303 15.38877,5.97625 8.07753,2.49322 17.34798,18.26853 17.34798,18.26853"
         id="path6762" /></g><text
       xml:space="preserve"
       style="font-style:normal;font-variant:normal;font-weight:bold;font-stretch:normal;font-size:6.35px;line-height:0;font-family:sans-serif;-inkscape-font-specification:'sans-serif Bold';fill:#88304e;fill-opacity:1;stroke:none;stroke-width:4.99999;stroke-linecap:square;stroke-linejoin:miter;stroke-dasharray:none;stroke-opacity:1;paint-order:fill markers stroke"
       x="9.5712004"
       y="8.3312492"
       id="text7868"><tspan
         sodipodi:role="line"
         id="tspan7866"
         style="stroke-width:5"
         x="9.5712004"
         y="8.3312492">warning: SBB Logo (interpretation)</tspan></text></g></svg>
