<?xml version="1.0" encoding="UTF-8" standalone="no"?>
<!-- Created with Inkscape (http://www.inkscape.org/) -->

<svg
   width="548.13861mm"
   height="204.71437mm"
   viewBox="0 0 548.13861 204.71437"
   version="1.1"
   id="svg3957"
   xmlns="http://www.w3.org/2000/svg"
   xmlns:svg="http://www.w3.org/2000/svg">
  <defs
     id="defs3954" />
  <g
     id="layer1"
     transform="translate(147.40459,86.849473)">
    <path
       id="path7289"
       style="fill:#f7374f;fill-opacity:0.02;stroke:none;stroke-width:41.5687;stroke-linecap:square;stroke-linejoin:miter;stroke-dasharray:none;stroke-opacity:1;paint-order:fill markers stroke"
       d="m 305.07117,38.38987 v 79.47467 h 40.67016 V 55.996545 Z" />
    <path
       id="path7187"
       style="color:#000000;fill:#88304e;fill-opacity:1;stroke-width:9.02541;stroke-linecap:square;-inkscape-stroke:none;paint-order:fill markers stroke"
       d="m 78.834109,-81.176657 c -0.978264,0.250004 -13.227999,3.556552 -14.21592,3.824516 -69.4271373,25.073215 -113.022926,92.860346 -113.022926,92.860346 0,0 69.521453,-59.064616 119.137459,-70.277241 l 8.101387,-2.201387 z" />
    <rect
       style="fill:#f7374f;fill-opacity:1;stroke:none;stroke-width:42.1438;stroke-linecap:square;stroke-linejoin:miter;stroke-dasharray:none;stroke-opacity:1;paint-order:fill markers stroke"
       id="rect6687"
       width="40.669918"
       height="91.852348"
       x="-147.40459"
       y="26.011356" />
    <rect
       style="fill:#f7374f;fill-opacity:1;stroke:none;stroke-width:40.2188;stroke-linecap:square;stroke-linejoin:miter;stroke-dasharray:none;stroke-opacity:1;paint-order:fill markers stroke"
       id="rect6689"
       width="40.669918"
       height="83.652405"
       x="-102.15663"
       y="34.211288" />
    <rect
       style="fill:#f7374f;fill-opacity:1;stroke:none;stroke-width:47.9398;stroke-linecap:square;stroke-linejoin:miter;stroke-dasharray:none;stroke-opacity:1;paint-order:fill markers stroke"
       id="rect6691"
       width="40.669918"
       height="118.85579"
       x="-56.908817"
       y="-0.99215227" />
    <rect
       style="fill:#f7374f;fill-opacity:1;stroke:none;stroke-width:53.4713;stroke-linecap:square;stroke-linejoin:miter;stroke-dasharray:none;stroke-opacity:1;paint-order:fill markers stroke"
       id="rect6693"
       width="40.669918"
       height="147.8632"
       x="-11.660861"
       y="-29.999578" />
    <rect
       style="fill:#f7374f;fill-opacity:1;stroke:none;stroke-width:57.3581;stroke-linecap:square;stroke-linejoin:miter;stroke-dasharray:none;stroke-opacity:1;paint-order:fill markers stroke"
       id="rect6695"
       width="40.669918"
       height="170.14276"
       x="33.587025"
       y="-52.278988" />
    <path
       id="rect6697"
       style="fill:#f7374f;fill-opacity:0.8;stroke:none;stroke-width:61.4507;stroke-linecap:square;stroke-linejoin:miter;stroke-dasharray:none;stroke-opacity:1;paint-order:fill markers stroke"
       d="m 119.50422,-71.550157 c -14.53876,1.242979 -33.009255,3.016833 -40.670111,3.759172 V 117.86454 h 40.670111 z" />
    <path
       id="rect6699"
       style="fill:#f7374f;fill-opacity:0.6;stroke:none;stroke-width:60.7062;stroke-linecap:square;stroke-linejoin:miter;stroke-dasharray:none;stroke-opacity:1;paint-order:fill markers stroke"
       d="m 134.58297,-72.62752 c -1.27565,-0.01805 -5.22932,0.255419 -10.49863,0.685931 V 117.8649 h 40.67012 V -66.853516 c -10.66704,-2.04967 -28.09014,-5.400533 -29.79369,-5.746025 -0.0722,-0.01805 -0.19946,-0.02708 -0.37816,-0.02708 z" />
    <path
       id="rect6701"
       style="fill:#f7374f;fill-opacity:0.4;stroke:none;stroke-width:58.787;stroke-linecap:square;stroke-linejoin:miter;stroke-dasharray:none;stroke-opacity:1;paint-order:fill markers stroke"
       d="M 169.32989,-60.860194 V 117.86454 H 210 V -28.678568 c -3.7515,-6.79207 -7.23856,-13.455709 -7.23856,-13.455709 l -23.19403,-18.725917 z" />
    <path
       id="rect6707"
       style="fill:#f7374f;fill-opacity:0.2;stroke:none;stroke-width:52.9328;stroke-linecap:square;stroke-linejoin:miter;stroke-dasharray:none;stroke-opacity:1;paint-order:fill markers stroke"
       d="M 214.58003,-20.609853 V 117.86454 h 40.67021 V 25.647799 c -6.57637,-2.628921 -14.2439,-6.566887 -14.2439,-6.566887 0,0 -19.41871,-30.453531 -22.63446,-33.963331 -0.80326,-0.876368 -2.18009,-3.012411 -3.79185,-5.727434 z" />
    <path
       id="rect6709"
       style="fill:#f7374f;fill-opacity:0.05;stroke:none;stroke-width:41.5687;stroke-linecap:square;stroke-linejoin:miter;stroke-dasharray:none;stroke-opacity:1;paint-order:fill markers stroke"
       d="m 259.82558,28.502175 v 89.362365 h 40.6702 V 36.40771 c -9.69981,-2.4652 -25.70292,-6.452716 -33.41766,-7.905535 z" />
    <path
       id="path6025"
       style="color:#000000;fill:#88304e;fill-opacity:1;stroke-width:9.02541;stroke-linecap:square;-inkscape-stroke:none;paint-order:fill markers stroke"
       d="m 122.10209,-86.848133 c -2.21745,-0.009 -4.46884,0.02708 -6.75344,0.116427 -12.18493,0.49008 -25.326284,2.478919 -39.452853,6.310475 l -11.277608,3.06891 6.114533,22.583104 11.300894,-3.068909 c 50.560244,-13.713566 81.120724,-1.764196 102.892714,16.19808 21.77191,17.962186 33.6044,42.61174824 41.88277,56.919547 l 0.45669,0.797846 0.56408,0.703982 c 11.29657,13.985862 23.6787,20.234513 35.88954,22.984284 12.21092,2.749771 24.04662,3.322523 41.7802,8.796252 13.45877,4.154125 33.9545,23.926627 48.98609,43.151468 7.67889,9.820907 14.1492,19.244967 18.67002,26.151027 h 27.57829 l -0.54099,-0.92339 c 0,0 -11.17968,-19.046767 -27.28444,-39.644101 C 356.80381,56.699534 336.7284,33.723373 312.39306,26.211977 292.33249,20.020096 278.18975,19.038944 268.86849,16.939905 259.68595,14.872094 254.91269,12.852749 246.37402,2.3975362 239.22409,-10.177023 225.8645,-38.189362 199.80391,-59.689779 181.0844,-75.133695 155.36352,-86.677282 122.10146,-86.848314 Z" />
  </g>
</svg>
